<?xml version="1.0" encoding="utf-8"?>
<!-- Generator: Adobe Adobe Illustrator 24.2.0, SVG Export Plug-In . SVG Version: 6.00 Build 0)  -->
<svg version="1.1" id="Layer_1" xmlns="http://www.w3.org/2000/svg" xmlns:xlink="http://www.w3.org/1999/xlink" x="0px" y="0px"
	 width="1844.4px" height="488.6px" viewBox="0 0 1844.4 488.6" style="enable-background:new 0 0 1844.4 488.6;"
	 xml:space="preserve">
<style type="text/css">
	.st0{fill:#284719;}
</style>
<path class="st0" d="M1629.2,0c-145.3,0-260.9,98.5-283.8,230.9V10h-139.8l-80.9,261.1c-15.1,48.9-27.4,97.1-32.2,118.5h-1.4
	c-4.8-20.7-17.8-74.3-34.3-125.2L976,10H832.8v140.8C808.8,55.6,724.9,0,624.4,0C462,0,336.5,123.2,336.5,279.1
	c0,3.4,0.1,6.8,0.2,10.2c-16.8-28.7-46.7-47.1-81.1-53.7c43.9-12.7,81.6-50.2,81.6-101.1C337.2,53.5,268,10,165.9,10H0v468.5h167.9
	c98.3,0,174-41.7,182.2-120c30.8,82.7,110.2,130.1,203,130.1c140.1,0,251.6-92.1,279.6-217.8v207.8h96.6V337.3
	c0-97.7-2-149.3-4.1-208.8L1037,478.6h104.9l111-349.4c-2.1,58.9-4.1,110.5-4.1,208.2v141.2h96.6V324.2
	c19.7,103.9,107.6,164.5,212.5,164.5c162.4,0,286.5-123.8,286.5-280.5C1844.4,78.3,1748.5,0,1629.2,0z M98,87h59.6
	c48.7,0,79.5,15.4,79.5,57.6c0,37.5-24,62.2-69.2,62.2H98V87z M161.1,401.6H98V276.4h69.9c58.3,0,82.9,24.8,82.9,64.3
	C250.9,382.9,219.3,401.6,161.1,401.6z M557.2,408.3c-70.6,0-116.5-48.9-116.5-128.5c0-101.1,72.7-199.5,178.2-199.5
	c70.6,0,116.5,49.5,116.5,128.5C735.4,310.6,663.5,408.3,557.2,408.3z M1562,408.3c-70.6,0-116.5-48.9-116.5-128.5
	c0-101.1,72.7-199.5,178.2-199.5c70.6,0,116.5,49.5,116.5,128.5C1740.2,310.6,1668.3,408.3,1562,408.3z"/>
</svg>
